<svg width="41" height="40" viewBox="0 0 41 40" fill="none" xmlns="http://www.w3.org/2000/svg">
<rect x="1" y="0.5" width="39" height="39" rx="19.5" stroke="#D6D6D6"/>
<path d="M30.3055 18.0415H29.5V18H20.5V22H26.1515C25.327 24.3285 23.1115 26 20.5 26C17.1865 26 14.5 23.3135 14.5 20C14.5 16.6865 17.1865 14 20.5 14C22.0295 14 23.421 14.577 24.4805 15.5195L27.309 12.691C25.523 11.0265 23.134 10 20.5 10C14.9775 10 10.5 14.4775 10.5 20C10.5 25.5225 14.9775 30 20.5 30C26.0225 30 30.5 25.5225 30.5 20C30.5 19.3295 30.431 18.675 30.3055 18.0415Z" fill="#FFC107"/>
<path d="M11.653 15.3455L14.9385 17.755C15.8275 15.554 17.9805 14 20.5 14C22.0295 14 23.421 14.577 24.4805 15.5195L27.309 12.691C25.523 11.0265 23.134 10 20.5 10C16.659 10 13.328 12.1685 11.653 15.3455Z" fill="#FF3D00"/>
<path d="M20.5 30C23.083 30 25.43 29.0115 27.2045 27.404L24.1095 24.785C23.0718 25.5742 21.8037 26.001 20.5 26C17.899 26 15.6905 24.3415 14.8585 22.027L11.5975 24.5395C13.2525 27.778 16.6135 30 20.5 30Z" fill="#4CAF50"/>
<path d="M30.3055 18.0415H29.5V18H20.5V22H26.1515C25.7571 23.1082 25.0467 24.0766 24.108 24.7855L24.1095 24.7845L27.2045 27.4035C26.9855 27.6025 30.5 25 30.5 20C30.5 19.3295 30.431 18.675 30.3055 18.0415Z" fill="#1976D2"/>
</svg>
