<svg width="97" height="98" viewBox="0 0 97 98" fill="none" xmlns="http://www.w3.org/2000/svg">
<path d="M40.5354 6.49982C45.436 4.46994 50.9422 4.46994 55.8428 6.49982L72.8293 13.5359C77.7298 15.5658 81.6233 19.4592 83.6532 24.3598L90.6893 41.3463C92.7191 46.2469 92.7191 51.7531 90.6893 56.6537L83.6532 73.6402C81.6233 78.5408 77.7299 82.4342 72.8293 84.4641L55.8428 91.5002C50.9422 93.5301 45.436 93.5301 40.5354 91.5002L23.5489 84.4641C18.6483 82.4342 14.7548 78.5408 12.725 73.6402L5.68891 56.6537C3.65903 51.7531 3.65903 46.2469 5.68891 41.3463L12.725 24.3598C14.7548 19.4592 18.6483 15.5658 23.5489 13.5359L40.5354 6.49982Z" fill="#F5F5FF" stroke="#FE8C00" stroke-width="8"/>
</svg>
