<svg width="65" height="64" viewBox="0 0 65 64" fill="none" xmlns="http://www.w3.org/2000/svg">
<path fill-rule="evenodd" clip-rule="evenodd" d="M44.0692 19.88C44.629 19.3251 45.3847 19.0128 46.173 19.0106C46.9612 19.0085 47.7186 19.3166 48.2815 19.8684C48.8443 20.4202 49.1674 21.1714 49.1808 21.9595C49.1942 22.7476 48.897 23.5093 48.3532 24.08L32.3852 44.04C32.1108 44.3356 31.7796 44.5728 31.4114 44.7375C31.0431 44.9021 30.6455 44.9909 30.2422 44.9983C29.839 45.0058 29.4383 44.9319 29.0643 44.781C28.6902 44.63 28.3504 44.4053 28.0652 44.12L17.4852 33.536C17.1905 33.2614 16.9541 32.9302 16.7901 32.5622C16.6261 32.1942 16.538 31.7969 16.5309 31.3941C16.5238 30.9913 16.5979 30.5912 16.7487 30.2176C16.8996 29.8441 17.1242 29.5047 17.4091 29.2199C17.694 28.935 18.0333 28.7104 18.4068 28.5595C18.7804 28.4086 19.1805 28.3345 19.5833 28.3417C19.9861 28.3488 20.3834 28.4369 20.7514 28.6009C21.1194 28.7649 21.4506 29.0013 21.7252 29.296L30.1012 37.668L43.9932 19.968C44.018 19.937 44.0447 19.9076 44.0732 19.88H44.0692Z" fill="#FE8C00"/>
</svg>
